# xmcd
#
# Track frame offsets: 
#        150
#        13659
#        25000
#        37331
#        48368
#        62145
#        73154
#        84742
#        94872
#        104133
#        113598
#        124394
#        136368
#        146669
#        159055
#        169519
#        179505
#        189222
#        202896
#        213953
#        225791
#
# Disc length: 3073 seconds
#
# Revision: 0
# Processed by: cddbd v1.5.2PL0 Copyright (c) Steve Scherf et al.
# Submitted via: ExactAudioCopy v0.95b3
#
DISCID=210bff15
DTITLE=The Electric Prunes  - Too Much To Dream - Original Group Recor
DTITLE=dings - CD1 - FLAC
DYEAR=1900
DGENRE=
TTITLE0=I Had Too Much To Dream Last Night
TTITLE1=Bangles
TTITLE2=Onie
TTITLE3=Are You Lovin' Me More (But Enjoy It Less)
TTITLE4=Train For Tomorrow
TTITLE5=Sold To The Highest Bidder
TTITLE6=Get Me To The World On Time
TTITLE7=About Quarter To Nine
TTITLE8=The King Is In the Counting House
TTITLE9=Luvin'
TTITLE10=Try Me On For Size
TTITLE11=The Toonerville Trolley
TTITLE12=Ain't It Hard
TTITLE13=Little Olive
TTITLE14=World Of Darkness (Outtake)
TTITLE15=I've Gotta A Way Of My Own (Outtake)
TTITLE16=Luvin' (Single,Mono Version)
TTITLE17=I Had Too Much To Dream Last Night (Single Mono Version)
TTITLE18=Are You Lovin' Me More (But Enjoy It Less (Mono Version)
TTITLE19=Get Me To The World On Time (Mono Version)
TTITLE20=Vox Wah Wah Pedal Radio Spot
EXTD=
EXTT0=
EXTT1=
EXTT2=
EXTT3=
EXTT4=
EXTT5=
EXTT6=
EXTT7=
EXTT8=
EXTT9=
EXTT10=
EXTT11=
EXTT12=
EXTT13=
EXTT14=
EXTT15=
EXTT16=
EXTT17=
EXTT18=
EXTT19=
EXTT20=
PLAYORDER=
